<?xml version="1.0" encoding="utf-8"?>
<!-- Generator: Adobe Illustrator 19.0.0, SVG Export Plug-In . SVG Version: 6.00 Build 0)  -->
<svg version="1.1" id="Capa_1" xmlns="http://www.w3.org/2000/svg" xmlns:xlink="http://www.w3.org/1999/xlink" x="0px" y="0px"
	 viewBox="0 0 30 30" style="enable-background:new 0 0 30 30;" xml:space="preserve">
<style type="text/css">
	.st0{fill:#874D2D;}
	.st1{fill:#FFFFFF;}
</style>
<g id="XMLID_2_">
	<circle id="XMLID_115_" class="st0" cx="15" cy="14.8" r="15"/>
	<path id="XMLID_3_" class="st1" d="M20.4,5.9H9.5c-1.9,0-3.4,1.5-3.4,3.4V13v1.3v5.9c0,1.9,1.5,3.4,3.4,3.4h10.9
		c1.9,0,3.4-1.5,3.4-3.4v-5.9V13V9.3C23.9,7.4,22.3,5.9,20.4,5.9z M21.4,7.9l0.4,0v0.4V11l-3,0l0-3L21.4,7.9z M12.5,13
		c0.6-0.8,1.5-1.3,2.5-1.3c1,0,2,0.5,2.5,1.3c0.1,0.1,0.1,0.2,0.2,0.3c0.3,0.5,0.4,1,0.4,1.5c0,1.7-1.4,3.1-3.1,3.1
		c-1.7,0-3.1-1.4-3.1-3.1c0-0.6,0.1-1.1,0.4-1.5C12.3,13.2,12.4,13.1,12.5,13z M22.2,20.2c0,0.9-0.8,1.7-1.7,1.7H9.5
		c-0.9,0-1.7-0.8-1.7-1.7v-6.4V13h2.7c-0.1,0.2-0.1,0.3-0.2,0.5c-0.1,0.4-0.2,0.9-0.2,1.3c0,2.7,2.2,4.9,4.9,4.9
		c2.7,0,4.9-2.2,4.9-4.9c0-0.5-0.1-0.9-0.2-1.3c0-0.2-0.1-0.3-0.2-0.5h2.7v0.9V20.2z"/>
</g>
</svg>
