<?xml version="1.0" encoding="utf-8"?>
<!-- Generator: Adobe Illustrator 19.0.0, SVG Export Plug-In . SVG Version: 6.00 Build 0)  -->
<svg version="1.1" id="Capa_1" xmlns="http://www.w3.org/2000/svg" xmlns:xlink="http://www.w3.org/1999/xlink" x="0px" y="0px"
	 viewBox="0 0 30 30" style="enable-background:new 0 0 30 30;" xml:space="preserve">
<style type="text/css">
	.st0{fill:#2797D0;}
	.st1{fill:#FFFFFF;}
</style>
<g>
	<circle id="XMLID_108_" class="st0" cx="15.3" cy="14.8" r="15"/>
	<g>
		<polygon id="XMLID_106_" class="st1" points="6.8,14.2 6.8,22.9 10.9,22.9 10.9,13.5 10.9,11.1 6.8,11.1 		"/>
		<circle id="XMLID_105_" class="st1" cx="8.8" cy="7.2" r="2.1"/>
		<path id="XMLID_104_" class="st1" d="M24.4,14.7c-0.3-2.2-1.3-3.6-4.3-3.6c-1.8,0-3,0.7-3.5,1.6h-0.1v-1.6h-3.3v2.3v9.6h3.5V17
			c0-1.5,0.3-3,2.2-3c1.9,0,2,1.8,2,3.1v5.8h3.6v-6.5h0C24.5,15.8,24.5,15.2,24.4,14.7z"/>
	</g>
</g>
</svg>
