<?xml version="1.0" encoding="utf-8"?>
<!-- Generator: Adobe Illustrator 19.0.0, SVG Export Plug-In . SVG Version: 6.00 Build 0)  -->
<svg version="1.1" id="Capa_1" xmlns="http://www.w3.org/2000/svg" xmlns:xlink="http://www.w3.org/1999/xlink" x="0px" y="0px"
	 viewBox="0 0 30 30" style="enable-background:new 0 0 30 30;" xml:space="preserve">
<style type="text/css">
	.st0{fill:#47BEEE;}
	.st1{fill:#FFFFFF;}
</style>
<g id="XMLID_2_">
	<circle id="XMLID_49_" class="st0" cx="14.7" cy="15" r="15"/>
	<path id="XMLID_47_" class="st1" d="M23.6,10.4c-0.7,0.3-1.4,0.5-2.1,0.6c0.8-0.4,1.3-1.1,1.6-2c-0.7,0.4-1.5,0.7-2.3,0.9
		c-0.7-0.7-1.6-1.1-2.7-1.1c-2,0-3.6,1.6-3.6,3.6c0,0.3,0,0.6,0.1,0.8c-3-0.1-5.7-1.6-7.5-3.7c-0.3,0.5-0.5,1.1-0.5,1.8
		c0,1.2,0.6,2.3,1.6,3c-0.6,0-1.2-0.2-1.7-0.4c0,0,0,0,0,0c0,0.5,0.1,0.9,0.2,1.3c0.4,1.1,1.4,2,2.7,2.2c-0.3,0.1-0.6,0.1-1,0.1
		c-0.2,0-0.5,0-0.7-0.1c0.5,1.4,1.8,2.5,3.4,2.5c-1.2,1-2.8,1.5-4.5,1.5c-0.3,0-0.6,0-0.9-0.1c1.6,1,3.5,1.6,5.6,1.6
		c5.7,0,9.2-3.9,10.1-8c0.2-0.7,0.2-1.5,0.2-2.2c0-0.2,0-0.3,0-0.5C22.5,11.8,23.1,11.1,23.6,10.4z"/>
</g>
</svg>
