<?xml version="1.0" encoding="utf-8"?>
<!-- Generator: Adobe Illustrator 19.0.0, SVG Export Plug-In . SVG Version: 6.00 Build 0)  -->
<svg version="1.1" id="Capa_1" xmlns="http://www.w3.org/2000/svg" xmlns:xlink="http://www.w3.org/1999/xlink" x="0px" y="0px"
	 viewBox="0 0 30 30" style="enable-background:new 0 0 30 30;" xml:space="preserve">
<style type="text/css">
	.st0{fill:#EB5B4D;}
	.st1{fill:#FFFFFF;}
</style>
<g>
	<circle id="XMLID_41_" class="st0" cx="15" cy="14.6" r="15"/>
	<path class="st1" d="M23.7,10.9c0,0-0.2-1.3-0.7-1.8c-0.7-0.7-1.4-0.7-1.8-0.8C18.7,8.1,15,8.1,15,8.1h0c0,0-3.7,0-6.2,0.2
		c-0.3,0-1.1,0-1.8,0.8c-0.5,0.6-0.7,1.8-0.7,1.8s-0.2,1.5-0.2,3v0.2v1.2c0,1.5,0.2,3,0.2,3s0.2,1.3,0.7,1.8c0.7,0.7,1.6,0.7,2,0.8
		c1.4,0.1,6,0.2,6,0.2s3.7,0,6.2-0.2c0.3,0,1.1,0,1.8-0.8c0.5-0.6,0.7-1.8,0.7-1.8s0.2-1.5,0.2-3v-1.1v-0.3
		C23.9,12.4,23.7,10.9,23.7,10.9z M18,14.4L13.2,17l0-4l0-1.2l2.2,1.2L18,14.4z"/>
</g>
</svg>
